<?xml version="1.0" standalone="no"?>
<!DOCTYPE svg PUBLIC "-//W3C//DTD SVG 1.1//EN" "http://www.w3.org/Graphics/SVG/1.1/DTD/svg11.dtd" >
<svg xmlns="http://www.w3.org/2000/svg">
<metadata>Generated by IcoMoon</metadata>
<defs>
<font id="icomoon" horiz-adv-x="1024">
<font-face units-per-em="1024" ascent="960" descent="-64" />
<missing-glyph horiz-adv-x="1024" />
<glyph unicode="&#x20;" horiz-adv-x="512" d="" />
<glyph unicode="&#xe900;" glyph-name="warn" horiz-adv-x="1029" d="M514.5 959.984c-284.143 0-514.502-229.214-514.502-511.984s230.358-511.984 514.502-511.984 514.502 229.214 514.502 511.984-230.358 511.984-514.502 511.984zM514.5-0.13c-247.524 0-448.13 200.605-448.13 448.13s200.605 448.13 448.13 448.13 448.13-200.605 448.13-448.13-200.605-448.13-448.13-448.13zM514.5 338.829v0c-21.858 0-37.535 16.708-37.535 38.679l-8.239 351.89c0 21.858 23.803 39.824 45.66 39.824v0c21.858 0 45.66-17.966 45.66-39.824l-8.239-351.89c0.229-21.972-15.335-38.679-37.306-38.679zM461.517 210.088c0-29.296 23.803-53.098 53.098-53.098s53.098 23.803 53.098 53.098c0 29.296-23.803 53.098-53.098 53.098-29.41 0-53.098-23.803-53.098-53.098z" />
<glyph unicode="&#xe901;" glyph-name="explain" d="M512 960c-282.794 0-512-229.206-512-512s229.206-512 512-512c282.794 0 512 229.206 512 512s-229.32 512-512 512v0zM512 4.328c-244.632 0-443.787 199.042-443.787 443.787 0 244.632 199.042 443.787 443.787 443.787 244.632 0 443.787-199.042 443.787-443.787-0.114-244.745-199.156-443.787-443.787-443.787v0zM617.69 313.287c-12.454 0-61.129-71.984-87.751-71.984-7.084 0-10.627 5.942-10.627 11.883 0 13.483 9.712 34.735 15.083 47.418l63.757 164.992c31.879 82.039-8.912 104.091-46.961 104.091-51.303 0-97.464-24.566-132.884-56.673-11.54-10.969-40.105-53.702-40.105-69.927 0-5.37 5.37-11.654 11.768-11.654 16.225 0 47.875 82.496 80.668 82.496 7.084 0 15.083-7.655 8.912-22.852l-61.929-148.996c-6.17-14.397-36.335-63.757-36.335-104.32 0-32.107 22.166-66.614 54.045-66.614 89.466 0 193.1 104.891 193.1 129.457-0.114 7.655-6.285 12.683-10.741 12.683v0zM599.98 725.424c-38.962 0-72.67-30.507-72.67-67.642 0-34.735 23.881-57.587 60.216-57.587 39.877 0 73.47 28.794 73.47 67.642 0.114 34.735-25.594 57.587-61.015 57.587v0z" />
<glyph unicode="&#xe902;" glyph-name="overview" horiz-adv-x="1029" d="M514.5 75.392l-396.733 305.592-85.78-69.696 482.513-375.288 482.513 375.288-85.78 69.696-396.733-305.592zM514.5 209.423l396.733 305.592 85.78 69.696-482.513 375.288-482.513-375.288 85.78-69.696 396.733-305.592z" />
<glyph unicode="&#xe903;" glyph-name="list" horiz-adv-x="1027" d="M-0.004 381.741h132.517v132.517h-132.517v-132.517zM-0.004 116.707h132.517v132.517h-132.517v-132.517zM-0.004 646.776h132.517v132.517h-132.517v-132.517zM265.030 381.741h761.974v132.517h-761.974v-132.517zM265.030 116.707h761.974v132.517h-761.974v-132.517zM265.030 779.293v-132.517h761.974v132.517h-761.974z" />
<glyph unicode="&#xe904;" glyph-name="success" horiz-adv-x="1018" d="M493.109 150.431l-126.696-124.696-7.669-8.447zM357.744 17.289l-357.75 351.971 135.365 133.142 215.050-211.605 532.235 587.915 135.365-133.142-524.9-595.028z" />
<glyph unicode="&#xe905;" glyph-name="user" horiz-adv-x="957" d="M696.060 331.608c81.8 64.4 134.6 164.2 134.6 276.4 0 194.4-157.6 352-352 352s-351.9-157.7-351.9-352.1c0-112.2 52.7-211.9 134.6-276.4-146.7-74.7-250-222.4-261.4-395.4h64.1c12.3 162 117.6 297.8 262.7 354.9 46.1-22.1 97.5-34.9 152.1-34.9s105.9 12.8 152.1 34.9c144.8-57.2 250.1-193 262.4-355h64.1c-11.4 173.1-114.7 320.7-261.4 395.6zM478.76 320.008c-159.1 0-288 128.9-288 287.9 0 159.1 128.9 287.9 288 287.9s287.9-128.9 287.9-287.9c0-159-128.9-287.9-287.9-287.9v0z" />
<glyph unicode="&#xe906;" glyph-name="wait" horiz-adv-x="1022" d="M581.705 885.084c-241.039 0-437.084-196.045-437.084-437.084h-144.623l192.831-192.831 196.045 196.045h-147.837c0 186.404 154.265 337.455 340.668 337.455s340.668-151.051 340.668-340.668c0-186.404-151.051-340.668-340.668-340.668-93.201 0-176.762 38.566-237.825 99.63l-67.491-67.491c80.346-80.346 186.404-128.554 308.529-128.554 241.039 0 437.084 196.045 437.084 437.084-3.214 241.039-199.259 437.084-440.298 437.084zM533.498 644.045v-241.039l208.9-122.127 35.353 57.85-170.334 99.63v205.686h-73.919z" />
<glyph unicode="&#xe907;" glyph-name="approval" horiz-adv-x="1023" d="M989.826 52.14h-956.78c-18.402 0-33.293 14.891-33.293 33.293v150.242c0 18.402 14.891 33.293 33.293 33.293h352.058v155.448c-95.763 47.7-156.538 144.673-156.538 252.906 0 155.932 126.877 282.809 282.809 282.809s282.809-126.877 282.809-282.809c0-108.354-60.775-205.327-156.538-252.906v-155.448h352.058c18.402 0 33.293-14.891 33.293-33.293v-150.242c0-18.402-14.891-33.293-33.172-33.293zM66.218 118.726h890.194v83.656h-352.058c-18.402 0-33.293 14.891-33.293 33.293v210.169c0 13.559 8.232 25.787 20.823 30.872 82.446 33.172 135.714 111.864 135.714 200.605 0 119.249-96.973 216.223-216.223 216.223s-216.223-96.973-216.223-216.223c0-88.62 53.269-167.433 135.714-200.605 12.591-5.085 20.823-17.312 20.823-30.872v-210.169c0-18.402-14.891-33.293-33.293-33.293h-352.179v-83.656zM6.533-10.208h1010.896v-53.874h-1010.896v53.874z" />
<glyph unicode="&#xe908;" glyph-name="arrow-down" d="M645.193 338.359v621.641h-266.386v-621.641h-269.166l402.359-402.359 402.359 402.359z" />
<glyph unicode="&#xe909;" glyph-name="arrow-top" d="M614.372 550.372v-614.372h-204.745v614.372h-307.255l409.628 409.628 409.628-409.628h-307.255z" />
<glyph unicode="&#xe90a;" glyph-name="assetman" d="M458.147-63.992c-122.316 0-237.368 47.684-323.895 134.211s-134.211 201.579-134.211 323.895 47.684 237.368 134.211 323.895c86.526 86.526 201.579 134.211 323.895 134.211 14.842 0 26.947-12.105 26.947-26.947v-404.211h404.211c14.842 0 26.947-12.105 26.947-26.947 0-122.316-47.684-237.368-134.211-323.895s-201.579-134.211-323.895-134.211v0zM431.2 797.482c-210.316-13.895-377.263-189.474-377.263-403.368 0-222.947 181.263-404.211 404.211-404.211 213.789 0 389.368 166.947 403.368 377.263h-403.368c-14.842 0-26.947 12.105-26.947 26.947v403.368zM997.095 474.956h-431.158c-14.842 0-26.947 12.105-26.947 26.947v431.158c0 14.842 12.105 26.947 26.947 26.947 122.316 0 237.368-47.684 323.895-134.211s134.211-201.579 134.211-323.895c0-14.842-12.105-26.947-26.947-26.947zM592.884 528.851h376.421c-13.263 201.474-174.947 363.053-376.421 376.421v-376.421z" />
<glyph unicode="&#xe90b;" glyph-name="calendar" horiz-adv-x="1030" d="M903.194-63.774h-776.613c-38.972 0-70.601 31.629-70.601 70.601v776.613c0 38.972 31.629 70.601 70.601 70.601h70.601v-35.244c0-58.514 47.444-105.958 105.958-105.958s105.958 47.444 105.958 105.958v35.244h211.804v-35.244c0-58.514 47.444-105.958 105.958-105.958s105.958 47.444 105.958 105.958v35.244h70.601c38.972 0 70.601-31.629 70.601-70.601v-776.613c-0.226-38.972-31.855-70.601-70.827-70.601zM903.194 606.881h-776.613v-600.054h776.613v600.054zM303.027 430.434h-105.958v105.845h105.958v-105.845zM303.027 253.988h-105.958v105.958h105.958v-105.958zM303.027 77.428h-105.958v105.958h105.958v-105.958zM479.586 430.434h-105.958v105.845h105.958v-105.845zM479.586 253.988h-105.958v105.958h105.958v-105.958zM479.586 77.428h-105.958v105.958h105.958v-105.958zM656.033 430.434h-105.958v105.845h105.958v-105.845zM656.033 253.988h-105.958v105.958h105.958v-105.958zM656.033 77.428h-105.958v105.958h105.958v-105.958zM832.592 430.434h-105.958v105.845h105.958v-105.845zM832.592 253.988h-105.958v105.958h105.958v-105.958zM832.592 77.428h-105.958v105.958h105.958v-105.958zM725.505 748.083c-38.407 0-69.472 31.177-69.472 69.472v72.747c0 38.407 31.065 69.472 69.472 69.472s69.472-31.065 69.472-69.472v-72.747c0.113-38.294-31.065-69.472-69.472-69.472zM301.897 748.083c-38.407 0-69.472 31.177-69.472 69.472v72.747c0 38.407 31.065 69.472 69.472 69.472s69.472-31.065 69.472-69.472v-72.747c0.113-38.294-31.065-69.472-69.472-69.472z" />
<glyph unicode="&#xe90c;" glyph-name="plus" d="M747.776 490.765h-200.96v220.693c0 14.4-11.2 24.427-36.053 25.92s-36.053-11.413-36.053-25.92v-220.693h-212.053c0 0-40.107 3.733-40.107-28.907 0-43.84 17.173-43.733 31.573-43.733h220.693l-0.107-231.467c0-18.133-3.733-42.027 33.707-42.027 39.467 0 37.653 36.267 37.653 44.8l0.853 228.8h200.96c9.173 0 44.8-2.56 45.227 37.973s-45.333 34.56-45.333 34.56zM512.256 959.991c-282.88 0-512-229.12-512-512 0-282.773 229.12-512 512-512s512 229.12 512 512-229.333 512-512 512zM512.256 4.365c-245.12 0-443.733 198.72-443.733 443.733 0 245.12 198.613 443.733 443.733 443.733s443.733-198.613 443.733-443.733c-0.107-245.12-198.72-443.733-443.733-443.733z" />
<glyph unicode="&#xe90d;" glyph-name="capitalman" d="M928.058 855.95h-677.708c-51.354 0-93.229-41.771-93.229-93.229v-180.938l-157.188-87.396 21.771-39.063 135.417 75.313v-185.625c0-11.979 2.396-23.438 6.562-34.062l242.5 179.063c19.375 14.271 46.667 11.979 63.333-5.417l14.167-14.792c17.188-17.917 17.917-45.729 1.771-64.583l-234.583-273.333c-24.167-28.125-59.375-44.271-96.458-44.271h-143.542v-44.792h143.542c50.208 0 97.708 21.875 130.417 59.896l127.917 149.063h104.896l-94.167-163.125 38.75-22.396 107.083 185.417h131.875l-94.167-163.125 38.75-22.396 107.083 185.417h175.313c51.354 0 93.229 41.771 93.229 93.229v417.813c-0.104 51.562-41.979 93.333-93.333 93.333zM928.058 296.471h-476.979l68.229 79.583c31.25 36.354 29.792 90-3.438 124.688l-14.167 14.792c-32.188 33.646-84.688 38.125-122.188 10.521l-177.708-131.25v368.021c0 26.771 21.771 48.438 48.438 48.438h677.708c26.771 0 48.438-21.771 48.438-48.438v-112.5h-659.583v-44.792h659.688v-260.521c0-26.771-21.667-48.542-48.438-48.542z" />
<glyph unicode="&#xe90e;" glyph-name="customer" d="M178.516 32.012c-16.7 0-30.3 13.5-30.3 30v73.6c0 73.5 22.2 144.4 64.3 204.8 41.1 59 98.2 104.2 165 130.7l11 4.4-9.3 7.3c-52.6 41.1-82.8 102.4-82.8 168.3 0 118.1 96.7 214.1 215.6 214.1s215.6-96.1 215.6-214.1c0-65.9-30.2-127.3-82.8-168.3l-9.3-7.3 11-4.4c66.9-26.5 123.9-71.7 165-130.7 42.1-60.4 64.3-131.2 64.3-204.8v-73.6c0-16.6-13.6-30-30.3-30h-667zM512.116 437.112c-167.3 0-303.3-135.2-303.3-301.3v-43.6h606.6v43.6c0 166.1-136.1 301.3-303.3 301.3v0zM512.116 805.212c-85.5 0-155-69.1-155-154.1 0-84.9 69.6-154.1 155-154.1 85.5 0 155 69.1 155 154.1s-69.5 154.1-155 154.1v0zM30.216 142.512c-16.7 0-30.3 13.5-30.3 30v57c0 108 59.7 205.9 155.7 255.3l7.9 4.1-6 6.6c-29.9 32.8-46.4 75.1-46.4 118.9 0 96.8 78.4 175.7 175.4 177.3-0.6-1-1.2-2-1.8-3-14.9-19.6-26.5-41.1-34.4-64.2-47.1-16.6-78.6-60.5-78.6-110.1 0-45.8 27.2-87.7 69.3-106.7l0.4-0.2c12.5-4.7 20.6-15.6 20.6-27.7 0-12.4-8.7-23.7-21.7-28.1l-6.9-1.6c-101.8-25.5-172.9-116.2-172.9-220.5v-26.9h35.4c-3.6-19.8-5.6-39.9-6-60.1l-59.7-0.1zM933.816 142.512c-0.4 20.1-2.4 40.3-6 60.1h35.4v26.9c0 104.3-71.1 195-172.8 220.5l-7 1.7c-13 4.4-21.7 15.7-21.7 28.1 0 12.1 8.1 23 20.6 27.7l0.4 0.2c42.1 19 69.3 60.9 69.3 106.7 0 49.7-31.4 93.5-78.6 110.1-7.9 23.1-19.5 44.7-34.4 64.2-0.6 1-1.2 2-1.8 3 97-1.7 175.4-80.6 175.4-177.3 0-43.9-16.5-86.1-46.4-118.9l-6-6.6 7.9-4.1c96.1-49.4 155.7-147.2 155.7-255.3v-57c0-16.6-13.6-30-30.3-30h-59.7z" />
<glyph unicode="&#xe90f;" glyph-name="jurisdiction" d="M856.933-66h-679.6c-45.2 0-82 36.667-82 82v449.067c0 50.4 40.8 91.2 91.2 91.2h650.133c51.733 0 93.733-42 93.733-93.733v-454.933c0-40.667-32.8-73.6-73.467-73.6zM165.067 3.6h695.867v482.933h-695.867v-482.933zM757.2 486.533h-69.6v244.933c0 87.733-78.4 159.067-174.667 159.067s-174.667-71.333-174.667-159.067v-244.933h-69.6v244.933c0 126.133 109.6 228.667 244.267 228.667s244.267-102.667 244.267-228.667v-244.933z" />
<glyph unicode="&#xe910;" glyph-name="platformman" d="M867.956 960.008h-711.6c-85.9 0-156.2-70.3-156.2-156.2v-711.6c0-85.9 70.3-156.2 156.2-156.2h711.6c85.9 0 156.2 70.3 156.2 156.2v711.6c0 85.9-70.3 156.2-156.2 156.2zM991.056 115.208c0-80.4-65.7-146.1-146.1-146.1h-665.6c-80.4 0-146.1 65.7-146.1 146.1v665.4c0 80.4 65.7 146.1 146.1 146.1h665.6c80.4 0 146.1-65.7 146.1-146.1v-665.4zM685.656 593.808c-12.5 0-22.6-10.1-22.6-22.6s10.1-22.6 22.6-22.6c73.1 0 132.8-59.5 132.8-132.8 0-73.1-59.5-132.6-132.8-132.6h-314.6c-101 0-183 82.1-183 183 0 101 82.1 183 183 183s183.2-82.1 183.2-183c0-12.5 10.1-22.6 22.6-22.6s22.6 10.1 22.6 22.6c0 125.8-102.4 228.2-228.2 228.2s-228.2-102.4-228.2-228.2c0-125.8 102.4-228.2 228.2-228.2h314.7c98 0 177.8 79.8 177.8 177.8-0.3 98.3-80 178-178.1 178z" />
<glyph unicode="&#xe911;" glyph-name="proman" d="M512.716 343.532c-3.6 0-7.1 0.9-10.3 2.7l-491.6 275.4c-6.7 3.8-10.8 10.8-10.8 18.4s4.1 14.7 10.8 18.4l488.2 273.4c6.4 3.5 14.2 3.5 20.6 0l491.6-275.2c6.7-3.7 10.8-10.8 10.8-18.4s-4.1-14.7-10.8-18.4l-488.1-273.5c-3.3-1.9-6.8-2.8-10.4-2.8zM64.316 640.032l448.4-251.2 444.9 249.3-448.4 251.1-444.9-249.2zM512.716 153.532c-3.6 0-7.1 0.9-10.3 2.7l-491.6 275.4c-10.2 5.7-13.8 18.6-8.1 28.7 5.6 10.2 18.5 13.8 28.7 8.1l481.3-269.7 477.8 267.8c10.2 5.7 23.1 2.1 28.7-8.1 5.7-10.2 2.1-23-8.1-28.7l-488.1-273.5c-3.2-1.8-6.7-2.7-10.3-2.7zM512.716-36.468c-3.6 0-7.1 0.9-10.3 2.7l-491.6 275.4c-10.2 5.7-13.8 18.6-8.1 28.7 5.6 10.2 18.5 13.9 28.7 8.1l481.3-269.7 477.8 267.8c10.2 5.6 23.1 2.1 28.7-8.1 5.7-10.2 2.1-23-8.1-28.7l-488.1-273.5c-3.2-1.8-6.7-2.7-10.3-2.7z" />
<glyph unicode="&#xe912;" glyph-name="close" d="M997.857 805.587l-357.756-357.871 357.756-357.756c16.371-16.371 26.445-38.924 26.445-63.881 0-49.914-40.412-90.326-90.326-90.326-24.957 0-47.51 10.074-63.881 26.445v0l-357.756 357.756-357.756-357.756c-16.371-16.371-38.924-26.445-63.881-26.445-49.914 0-90.326 40.412-90.326 90.326 0 24.957 10.074 47.51 26.445 63.881v0l357.756 357.756-357.756 357.756c-16.371 16.371-26.445 38.924-26.445 63.881 0 49.914 40.412 90.326 90.326 90.326 24.957 0 47.51-10.074 63.881-26.445v0l357.756-357.756 357.756 357.756c16.371 16.371 38.924 26.445 63.881 26.445 49.914 0 90.326-40.412 90.326-90.326 0.114-24.843-10.074-47.396-26.445-63.766v0z" />
<glyph unicode="&#xe913;" glyph-name="date" horiz-adv-x="1056" d="M919.553 826.855h-130.109v109.614c0 13.011-10.593 23.604-23.604 23.604s-23.604-10.593-23.604-23.604v-109.614h-430.052v109.614c0 13.011-10.593 23.604-23.604 23.604s-23.604-10.593-23.604-23.604v-109.614h-117.789c-79.678 0-147.381-71.387-147.381-156.246v-574.554c0-87.622 69.085-160.046 147.381-160.046h772.136c76.339 0 136.212 70.812 136.212 160.046v574.554c0.115 87.737-57.11 156.246-135.982 156.246zM1008.557 96.055c0-63.212-38.687-111.687-89.119-111.687h-772.136c-51.813 0-100.173 50.662-100.173 111.687v574.554c0 59.873 45.711 109.039 100.173 109.039h117.789v-96.718c0-13.011 10.593-23.604 23.604-23.604s23.604 10.593 23.604 23.604v96.718h430.052v-96.718c0-13.011 10.593-23.604 23.604-23.604s23.604 10.593 23.604 23.604v96.718h130.109c52.044 0 89.119-48.244 89.119-109.039v-574.554zM206.139 526.337h648.014v-47.093h-648.014v47.093zM206.139 337.851h648.014v-47.093h-648.014v47.093zM206.139 155.238h406.448v-47.093h-406.448v47.093z" />
<glyph unicode="&#xe914;" glyph-name="delete" horiz-adv-x="1006" d="M978.693 801.21h-208.389v49.448c0 60.044-49.448 109.492-109.492 109.492h-324.945c-60.044 0-109.492-49.448-109.492-109.492v-49.448h-197.792c-14.128 0-28.256-10.596-28.256-28.256 0-14.128 10.596-28.256 28.256-28.256h67.108v-699.338c0-60.044 49.448-109.492 109.492-109.492h607.506c60.044 0 109.492 49.448 109.492 109.492v699.338h56.512c14.128 0 28.256 10.596 28.256 28.256-3.532 14.128-10.596 28.256-28.256 28.256zM286.419 850.658c0 28.256 24.724 52.98 52.98 52.98h324.945c28.256 0 52.98-24.724 52.98-52.98v-49.448h-430.905v49.448zM865.669 55.956c0-31.788-17.66-63.576-45.916-63.576h-607.506c-28.256 0-60.044 21.192-60.044 49.448l3.532 702.87h709.934v-688.742zM342.932 592.821c-17.66 0-28.256-10.596-28.256-28.256v-377.925c0-17.66 14.128-28.256 28.256-28.256s28.256 10.596 28.256 28.256v377.925c-3.532 14.128-10.596 28.256-28.256 28.256zM519.532 592.821c-17.66 0-28.256-10.596-28.256-28.256v-377.925c0-17.66 14.128-28.256 28.256-28.256s28.256 10.596 28.256 28.256v377.925c-3.532 14.128-10.596 28.256-28.256 28.256zM696.132 592.821c-17.66 0-28.256-10.596-28.256-28.256v-377.925c0-17.66 14.128-28.256 28.256-28.256s28.256 10.596 28.256 28.256v377.925c-3.532 14.128-10.596 28.256-28.256 28.256z" />
<glyph unicode="&#xe915;" glyph-name="down" horiz-adv-x="1023" d="M555.853 182.381l442.643 442.643c24.505 24.505 24.505 64.090 0 88.595-24.394 24.394-64.090 24.505-88.595 0l-398.4-398.4-398.4 398.4c-24.394 24.394-64.090 24.505-88.595 0s-24.394-64.090 0-88.595l442.643-442.643c24.616-24.505 64.201-24.505 88.706 0z" />
<glyph unicode="&#xe916;" glyph-name="edit" d="M969.344 536.486c-27.36 0-54.56-20.48-54.56-54.56v-355.040c0-47.84-40.96-81.92-81.92-81.92h-641.76c-47.84 0-81.92 40.96-81.92 81.92v648.48c0 47.84 40.96 81.92 81.92 81.92h361.92c27.36 0 54.56 20.48 54.56 54.56s-27.36 47.84-54.56 47.84h-361.76c-102.4 0-191.2-81.92-191.2-191.2v-641.76c0-102.4 81.92-191.2 191.2-191.2h641.76c102.4 0 191.2 81.92 191.2 191.2v355.040c-7.040 34.24-27.52 54.72-54.88 54.72zM293.504 249.766c6.88-6.88 20.48-13.6 34.080-13.6s27.36 6.88 34.080 13.6l600.8 600.8c20.48 20.48 20.48 54.56 0 75.040s-54.56 20.48-75.040 0l-593.92-607.52c-13.6-20.48-13.6-47.84 0-68.32z" />
<glyph unicode="&#xe917;" glyph-name="import" d="M517.497 214.981c-13.043 0-24.068 4.503-33.075 13.509l-232.764 232.764c-9.006 9.006-13.509 20.031-13.509 33.075 0 13.354 4.348 24.379 13.199 33.23s19.876 13.199 33.23 13.199c13.043 0 24.068-4.503 33.075-13.509l153.106-153.416v539.13c0 12.888 4.503 23.758 13.665 32.919s20.031 13.665 32.919 13.665c12.888 0 23.758-4.503 32.919-13.665s13.665-20.031 13.665-32.919v-539.13l153.106 153.416c9.472 9.006 20.497 13.509 33.075 13.509 12.888 0 23.758-4.503 32.919-13.665s13.665-20.031 13.665-32.919c0-12.578-4.503-23.602-13.509-33.075l-232.764-232.764c-8.851-8.851-19.876-13.354-32.919-13.354v0zM977.435 308.149c12.888 0 23.758-4.503 32.919-13.665s13.665-20.031 13.665-32.919v-186.18c0-38.82-13.509-71.584-40.373-98.602-27.329-27.329-60.093-41.149-98.137-41.149h-745.652c-38.043 0-70.963 13.509-98.913 40.683-27.174 27.95-40.683 60.87-40.683 98.913v186.18c0 12.888 4.503 23.758 13.665 32.919s20.031 13.665 32.919 13.665c12.888 0 23.758-4.503 32.919-13.665s13.665-20.031 13.665-32.919v-186.18c0-12.888 4.503-23.758 13.665-32.919s20.031-13.665 32.919-13.665h745.652c12.578 0 23.292 4.503 32.143 13.665s13.199 20.031 13.199 32.919v186.18c0 12.888 4.503 23.758 13.665 32.919 9.006 9.161 20.031 13.82 32.764 13.82v0z" />
<glyph unicode="&#xe918;" glyph-name="left" horiz-adv-x="575" d="M18.472 403.178l448.539-448.539c24.831-24.831 64.944-24.831 89.775 0 24.719 24.719 24.831 64.944 0 89.775l-403.708 403.596 403.708 403.708c24.719 24.719 24.831 64.944 0 89.775s-64.944 24.719-89.775 0l-448.539-448.539c-24.719-24.831-24.719-64.944 0-89.775z" />
<glyph unicode="&#xe919;" glyph-name="remind" d="M749.548 328.381l0.028 0.166 0.245 0.423 0.103-0.315zM724.868 340.809l0.025 0.148 0.219 0.379 0.092-0.282zM862.956 198.352c0 60.257-41.714 92.702-41.714 92.702-84.762 74.164-83.438 283.419-83.438 283.419 0 161.364-144.105 208.854-151.96 211.324-5.842 35.408-36.33 62.501-73.394 62.501-36.96 0-67.393-26.928-73.358-62.184l-0.262-0.077c-152.636-51.65-152.468-211.564-152.468-211.564 0-222-80.955-283.086-80.955-283.086-42.712-37.745-44.365-91.049-44.365-91.049 11.259-83.103 75.158-75.819 75.158-75.819h201.393c-0.018-0.604-0.181-1.17-0.181-1.776 0-41.443 33.596-75.039 75.039-75.039s75.035 33.596 75.035 75.039c0 0.607-0.164 1.173-0.176 1.776h199.666c76.973-0.001 75.979 73.833 75.979 73.833zM511.776 92.806c-17.294 0-31.312 14.019-31.312 31.313 0 0.253 0.068 0.49 0.076 0.741h62.474c0.005-0.252 0.074-0.488 0.074-0.741-0.001-17.294-14.018-31.313-31.311-31.313zM791.662 178.603h-559.325c0 0-41.699 11.746-6.46 59.199 15.561 10.261 107.418 95.925 112.055 338.28 0 0 4.228 167.026 174.067 170.549 0 0 170.555 6.342 176.898-170.549 0 0-3.254-235.641 110.646-338.28 0-0.001 39.465-37.117-7.882-59.199z" />
<glyph unicode="&#xe91a;" glyph-name="right" horiz-adv-x="575" d="M556.787 492.84l-448.539 448.539c-24.831 24.831-64.944 24.831-89.775 0-24.719-24.719-24.831-64.944 0-89.775l403.708-403.708-403.708-403.708c-24.719-24.719-24.831-64.944 0-89.775s64.944-24.719 89.775 0l448.539 448.539c24.719 25.056 24.719 65.169 0 89.888z" />
<glyph unicode="&#xe91b;" glyph-name="shenpi" d="M132.362 798.224v-143.454c0-12.018 9.867-21.758 22.264-21.758h704.111c12.271 0 22.138 9.867 22.138 21.758v143.454c0 12.018-9.867 21.758-22.138 21.758h-704.238c-12.144 0.127-22.138-9.741-22.138-21.758v0zM1024.329 522.070c0 12.018-9.867 21.758-22.264 21.758h-847.438c-12.271 0-22.264-9.867-22.264-21.758v-143.454c0-12.018 9.867-21.758 22.264-21.758h847.565c12.271 0 22.264 9.741 22.264 21.758v143.454h-0.127zM712.88 246.042c0 12.018-9.867 21.758-22.138 21.758h-536.243c-12.271 0-22.264-9.867-22.264-21.758v-143.454c0-12.018 9.867-21.758 22.264-21.758h536.243c12.271 0 22.138 9.741 22.138 21.758v143.454zM74.044-27.962v951.423c0 19.987-16.445 36.306-36.939 36.306s-36.939-16.319-36.939-36.306v-951.423c0-20.24 16.572-36.306 36.939-36.306s36.939 16.066 36.939 36.306v0z" />
<glyph unicode="&#xe91c;" glyph-name="time" d="M511.62 959.698c-281.558 0-511.913-230.355-511.913-511.913 0-281.443 230.355-511.913 511.913-511.913s511.913 230.47 511.913 512.027-230.355 511.798-511.913 511.798zM511.62 38.277c-225.315 0-409.507 184.307-409.507 409.507 0 225.315 184.307 409.507 409.507 409.507s409.507-184.307 409.507-409.507c-0.115-225.2-184.307-409.507-409.507-409.507zM537.164 703.798h-76.747v-307.102l266.208-163.803 40.893 66.438-230.355 138.144v266.323z" />
<glyph unicode="&#xe91d;" glyph-name="top" horiz-adv-x="1023" d="M467.147 713.674l-442.643-442.643c-24.505-24.505-24.505-64.090 0-88.595 24.394-24.394 64.090-24.505 88.595 0l398.4 398.4 398.4-398.4c24.394-24.394 64.090-24.505 88.595 0s24.394 64.090 0 88.595l-442.643 442.643c-24.616 24.394-64.201 24.394-88.706 0z" />
<glyph unicode="&#xe91e;" glyph-name="log" horiz-adv-x="1029" d="M932.658 803.030l-212.173 152.314c-5.231 3.119-11.167 4.728-17.203 4.728h-589.738c-18.511 0-33.4-14.99-33.4-33.4v-957.344c0-18.511 14.99-33.4 33.4-33.4h801.911c18.511 0 33.4 14.99 33.4 33.4v805.030c0 11.67-6.137 22.636-16.197 28.672v0zM882.054 2.728h-735.111v890.443h547.082l188.028-137.827v-752.616zM315.555 678.583h-41.751c-12.274 0-22.233-9.96-22.233-22.233v-41.751c0-12.274 9.96-22.334 22.233-22.334h41.751c12.274 0 22.233 9.96 22.233 22.334v41.751c0.101 12.274-9.859 22.233-22.233 22.233zM367.466 635.424c0-12.274 9.96-22.334 22.334-22.334h401.408c12.274 0 22.233 9.96 22.233 22.334 0 12.274-9.96 22.334-22.233 22.334h-401.408c-12.374 0-22.334-10.060-22.334-22.334zM315.555 455.746h-41.751c-12.274 0-22.233-9.96-22.233-22.334v-41.751c0-12.274 9.96-22.334 22.233-22.334h41.751c12.274 0 22.233 9.96 22.233 22.334v41.751c0.101 12.374-9.859 22.334-22.233 22.334zM791.108 434.82h-401.408c-12.274 0-22.334-9.96-22.334-22.233s9.96-22.334 22.334-22.334h401.408c12.274 0 22.233 9.96 22.233 22.334 0.101 12.274-9.96 22.233-22.233 22.233zM315.555 247.698h-41.751c-12.274 0-22.233-9.96-22.233-22.233v-41.751c0-12.274 9.96-22.233 22.233-22.233h41.751c12.274 0 22.233 9.96 22.233 22.233v41.751c0.101 12.274-9.859 22.233-22.233 22.233zM791.108 226.873h-401.408c-12.274 0-22.334-9.96-22.334-22.233s9.96-22.233 22.334-22.233h401.408c12.274 0 22.233 9.96 22.233 22.233 0.101 12.274-9.96 22.233-22.233 22.233z" />
<glyph unicode="&#xe91f;" glyph-name="relation" horiz-adv-x="1031" d="M65.019 289.332c-40.166 40.055-64.909 95.422-65.020 156.448v4.66c0 58.696 23.079 114.285 65.020 156.226s97.53 65.020 156.448 65.020l107.406-3.551c18.641-0.555 33.287-16.2 32.732-34.951-0.666-18.641-16.311-33.287-34.951-32.732l-106.296 3.551c-39.722 0-78.335-16.089-107.517-45.27s-45.27-67.683-45.159-108.515v-4.66c0.111-84.549 69.015-153.563 153.785-153.563l239.111 0.111c86.879 0.111 155.117 64.355 155.117 146.352v4.438c0 6.103-2.219 23.412-8.766 35.173-9.099 16.311-3.218 36.948 13.093 46.047s36.948 3.218 46.047-13.093c13.647-24.521 17.309-54.368 17.309-68.127v-4.438c0-119.944-97.863-213.924-222.689-214.035h-239.111c-61.137-0.111-116.393 24.854-156.559 64.909v0zM365.933 439.012c-6.103 6.103-9.875 14.535-9.875 23.967 0 120.942 90.208 208.709 214.367 208.709h239.111c122.052 0 221.469-99.306 221.469-221.469v-4.549c0-58.807-23.079-114.396-65.020-156.337s-97.53-65.020-156.448-65.020l-108.072 4.327c-18.641 0.666-33.176 16.421-32.4 35.173 0.777 18.641 16.532 33.176 35.173 32.4l106.629-4.327c39.5 0 78.113 16.089 107.295 45.27s45.159 67.683 45.159 108.626v4.549c0 84.66-69.015 153.674-153.785 153.674h-239.111c-86.435 0-146.684-58.030-146.795-141.137 0-18.641-15.090-33.842-33.842-33.842-9.21 0.111-17.753 3.883-23.856 9.986v0z" />
<glyph unicode="&#xe920;" glyph-name="book" horiz-adv-x="1020" d="M88.211 930.511v-965.023c0-16.399 13.303-29.587 29.587-29.587h618.349c9.289 0 18.119 4.358 23.739 11.812l165.94 221.216c3.899 5.161 5.963 11.353 5.963 17.775v743.807c0 16.399-13.303 29.587-29.587 29.587h-784.404c-16.284 0-29.587-13.303-29.587-29.587zM879.61 198.631l-146.101-194.839c-5.619-7.454-14.335-11.812-23.739-11.812h-545.757c-16.399 0-29.587 13.303-29.587 29.587v852.867c0 16.399 13.303 29.587 29.587 29.587h691.858c16.399 0 29.587-13.303 29.587-29.587v-658.028c0.115-6.422-1.95-12.615-5.849-17.775zM302.66 646.796h414.679c16.399 0 29.587-13.303 29.587-29.587v0c0-16.399-13.303-29.587-29.587-29.587h-414.679c-16.399 0-29.587 13.303-29.587 29.587v0c-0.115 16.399 13.188 29.587 29.587 29.587zM302.66 469.158h237.041c16.399 0 29.587-13.303 29.587-29.587v0c0-16.399-13.303-29.587-29.587-29.587h-237.041c-16.399 0-29.587 13.303-29.587 29.587v0c-0.115 16.284 13.188 29.587 29.587 29.587z" />
<glyph unicode="&#xe921;" glyph-name="brackets" d="M407.808-64v53.911h13.892c34.213 0 49.764 12.13 55.466 41.781 3.214 16.484 4.044 26.438 4.044 77.031v191.281c0 65.937 6.532 94.552 27.681 120.988 12.233 14.307 19.595 18.662 38.36 26.438-52.978 27.473-66.041 58.266-66.041 148.463v191.384c0 52.77-0.829 60.443-4.044 77.031-1.659 8.813-4.873 17.625-9.745 24.157-9.020 13.166-20.424 17.625-45.616 17.625h-13.892v53.911h23.638c52.978 0 84.806-29.651 94.552-85.739 4.873-25.297 5.702-41.781 5.702-92.374v-5.495l-0.829-183.608c0-63.761 4.873-85.739 23.638-100.047 12.233-9.849 37.116-13.166 61.583-16.484v-56.088c-35.042-4.355-68.114-14.307-77.031-36.286-6.532-15.447-8.191-36.286-8.191-80.245l0.829-182.572v-6.636c0-49.453-1.659-67.077-5.702-91.234-3.214-17.625-9.745-34.109-17.936-47.275-17.106-27.473-39.086-36.286-76.616-38.464l-23.742-1.452z" />
<glyph unicode="&#xe922;" glyph-name="file" horiz-adv-x="1017" d="M151.241 960c-65.604 0-118.373-46.351-118.373-102.685l-0.713-818.63c0-56.334 52.769-102.685 118.373-102.685h715.231c65.604 0 119.086 46.351 119.086 102.685v613.972l-357.259 307.343h-476.345zM567.687 601.315v281.671l327.309-281.671h-327.309z" />
<glyph unicode="&#xe923;" glyph-name="analytic" d="M1024-64h-1024v1024h54.613v-983.040h969.387zM109.227 345.6h54.613l95.573 191.147 27.307 40.96 27.307-40.96 109.227-245.76 136.533 423.253 27.307 68.267 27.307-68.267 122.88-354.987h204.8v-40.96h-232.107l-13.653 13.653-109.227 300.373-136.533-423.253-13.653-54.613-27.307 54.613-122.88 259.413-81.92-150.187-13.653-13.653h-81.92zM928.427 441.173l95.573-95.573-95.573-109.227z" />
<glyph unicode="&#xe924;" glyph-name="asset" d="M511.384 326.604l-80.221 94.479c-7.479 8.823-20.756 9.944-29.607 2.409-8.852-7.507-9.915-20.756-2.409-29.607l92.658-109.129c-0.056-0.785-0.28-1.512-0.252-2.297h-57.73c-11.596 0-21.008-9.412-21.008-21.008s9.412-21.008 21.008-21.008h60.502v-27.506h-60.502c-11.596 0-21.008-9.412-21.008-21.008s9.412-21.008 21.008-21.008h60.502v-51.483c0-11.596 9.412-21.008 21.008-21.008s21.008 9.412 21.008 21.008v51.483h60.474c11.596 0 21.008 9.412 21.008 21.008s-9.412 21.008-21.008 21.008h-60.474v27.506h60.474c11.596 0 21.008 9.412 21.008 21.008s-9.412 21.008-21.008 21.008h-55.32c0.028 0.729-0.196 1.456-0.252 2.185l92.378 109.269c7.507 8.852 6.387 22.128-2.465 29.607-8.879 7.534-22.128 6.414-29.607-2.465l-80.221-94.871c-1.932 0.589-3.866 1.205-5.994 1.205-1.429 0-2.633-0.532-3.95-0.785zM1016.241 403.408l-488.724 455.559c-8.067 7.507-20.559 7.507-28.626 0l-488.724-455.559c-8.487-7.899-8.963-21.204-1.065-29.719 7.927-8.487 21.204-8.963 29.691-1.036l474.41 442.227 474.41-442.199c4.061-3.781 9.188-5.631 14.314-5.631 5.631 0 11.233 2.241 15.377 6.667 7.899 8.487 7.423 21.792-1.065 29.691zM527.517 643.203c-8.067 7.507-20.559 7.507-28.626 0l-383.713-357.692c-4.257-3.977-6.694-9.552-6.694-15.377v-157.838c0-44.621 36.302-80.921 80.921-80.921h647.627c44.621 0 80.894 36.302 80.894 80.921v157.838c0 5.826-2.409 11.4-6.694 15.377l-383.713 357.692zM875.91 112.325c0-21.456-17.451-38.906-38.879-38.906h-647.627c-21.456 0-38.906 17.451-38.906 38.906v148.706l362.705 338.084 362.705-338.084v-148.706z" />
<glyph unicode="&#xe925;" glyph-name="data" d="M512 960c-234.667 0-426.667-76.8-426.667-185.6v-652.8c0-106.667 192-185.6 426.667-185.6s426.667 76.8 426.667 185.6v652.8c0 108.8-192 185.6-426.667 185.6zM512 917.333c213.333 0 384-68.267 384-142.933 0-72.533-170.667-142.933-384-142.933s-384 68.267-384 142.933 170.667 142.933 384 142.933zM896 121.6c0-72.533-170.667-142.933-384-142.933s-384 68.267-384 142.933v136.533c68.267-61.867 215.467-102.4 384-102.4s315.733 40.533 384 102.4v-136.533zM512 196.267c-213.333 0-384 68.267-384 142.933v136.533c68.267-61.867 215.467-102.4 384-102.4s315.733 40.533 384 102.4v-136.533c0-72.533-170.667-142.933-384-142.933zM512 413.867c-213.333 0-384 68.267-384 142.933v136.533c68.267-61.867 215.467-102.4 384-102.4s315.733 40.533 384 102.4v-136.533c0-72.533-170.667-142.933-384-142.933zM782.933 558.933c0-14.139 11.461-25.6 25.6-25.6s25.6 11.461 25.6 25.6v0c0 14.139-11.461 25.6-25.6 25.6s-25.6-11.461-25.6-25.6v0zM782.933 343.467c0-14.139 11.461-25.6 25.6-25.6s25.6 11.461 25.6 25.6v0c0 14.139-11.461 25.6-25.6 25.6s-25.6-11.461-25.6-25.6v0zM782.933 125.867c0-14.139 11.461-25.6 25.6-25.6s25.6 11.461 25.6 25.6v0c0 14.139-11.461 25.6-25.6 25.6s-25.6-11.461-25.6-25.6v0z" />
<glyph unicode="&#xe926;" glyph-name="fund" d="M1024.394 691.414v121.891c0 0.093-0.007 0.185-0.014 0.271v20.053c0 27.045-17.259 65.45-99.473 94.812-56.263 20.101-130.604 31.172-209.349 31.172s-153.086-11.071-209.342-31.172c-82.221-29.368-99.48-67.767-99.48-94.812v-225.302c-31.293 3.922-64.079 5.912-97.505 5.912-78.724 0-153.072-11.071-209.349-31.181-82.221-29.361-99.48-67.767-99.48-94.805v-426.649c0-27.038 17.259-65.423 99.48-94.791 56.27-20.101 130.625-31.181 209.349-31.181s153.072 11.078 209.357 31.181c82.221 29.368 99.48 67.76 99.48 94.791v83.116c31.208-3.936 63.988-5.926 97.498-5.926 78.724 0 153.072 11.078 209.349 31.181 82.228 29.382 99.487 67.767 99.487 94.805v121.899c0 0.093-0.014 0.171-0.014 0.271v19.612c0 0.15 0.014 0.291 0.014 0.44v121.884c0 0.093-0.014 0.178-0.014 0.271v19.598c0 0.15 0.014 0.291 0.014 0.44v121.899c0 0.085-0.014 0.178-0.014 0.271v19.612c0 0.15 0.007 0.298 0.007 0.44v0zM522.631 882.48c51.134 18.27 119.661 28.33 192.935 28.33s141.787-10.062 192.928-28.33c52.965-18.915 67.092-39.608 67.092-48.852 0-9.237-14.127-29.922-67.099-48.838-51.125-18.276-119.647-28.345-192.921-28.345-73.267 0-141.787 10.062-192.935 28.338-52.965 18.915-67.099 39.601-67.099 48.845s14.134 29.937 67.099 48.852v0zM455.53 762.506c13.949-8.684 30.967-16.635 50.678-23.67 56.27-20.117 130.618-31.188 209.342-31.188 78.739 0 153.086 11.078 209.357 31.188 19.691 7.035 36.722 14.986 50.685 23.677v-71.392c-0.305-9.379-14.694-29.83-67.099-48.547-51.134-18.276-119.654-28.338-192.921-28.338-73.282 0-141.802 10.069-192.935 28.338-52.965 18.915-67.099 39.601-67.099 48.845v71.085h-0.007zM569.265 61.605c0-9.244-14.127-29.937-67.092-48.852-51.134-18.27-119.647-28.338-192.935-28.338-73.26 0-141.78 10.069-192.941 28.338-52.965 18.915-67.092 39.608-67.092 48.852v71.085c13.977-8.698 30.995-16.649 50.678-23.677 56.306-20.11 130.653-31.188 209.357-31.188s153.051 11.078 209.342 31.188c19.698 7.042 36.722 14.993 50.685 23.677v-71.085zM569.265 203.811c0-9.237-14.127-29.922-67.092-48.845-51.161-18.276-119.682-28.338-192.935-28.338-73.26 0-141.78 10.062-192.941 28.338-52.965 18.915-67.092 39.601-67.092 48.845v71.093c13.97-8.691 30.988-16.642 50.685-23.677 56.277-20.101 130.625-31.172 209.349-31.172 78.717 0 153.072 11.071 209.349 31.172 19.682 7.035 36.701 14.986 50.678 23.677v-71.093zM569.265 346.033c0-9.244-14.127-29.929-67.092-48.859-51.168-18.261-119.689-28.33-192.935-28.33s-141.766 10.069-192.941 28.33c-52.965 18.93-67.092 39.614-67.092 48.859v71.085c13.991-8.698 31.010-16.655 50.685-23.677 56.306-20.101 130.653-31.181 209.349-31.181 78.689 0 153.044 11.071 209.349 31.181 19.675 7.028 36.688 14.979 50.678 23.677v-71.085zM502.166 439.402c-51.14-18.276-119.661-28.338-192.935-28.338s-141.795 10.062-192.941 28.338c-52.965 18.915-67.092 39.601-67.092 48.845s14.134 29.944 67.092 48.859c51.168 18.27 119.689 28.33 192.941 28.33s141.78-10.062 192.935-28.33c52.965-18.915 67.092-39.614 67.092-48.859 0.007-9.244-14.127-29.929-67.092-48.845v0zM518.573 583.059c-18.98 6.787-40.183 12.585-63.050 17.267v19.967c13.963-8.698 30.988-16.649 50.685-23.683 56.299-20.11 130.646-31.181 209.349-31.181 78.696 0 153.044 11.071 209.349 31.181 19.691 7.035 36.715 14.993 50.685 23.683v-71.093c0-9.237-14.134-29.922-67.099-48.852-51.168-18.27-119.682-28.33-192.921-28.33-33.681 0-66.73 2.175-98.273 6.459 0.512 3.248 0.767 6.516 0.767 9.77 0 27.045-17.267 65.444-99.494 94.812v0zM975.599 264.765c0-9.244-14.134-29.929-67.106-48.845-51.154-18.276-119.675-28.338-192.921-28.338-33.994 0-67.042 2.168-98.273 6.445 0.512 3.248 0.767 6.523 0.767 9.791v83.116c31.272-3.944 64.065-5.933 97.505-5.933 78.724 0 153.072 11.078 209.342 31.181 19.691 7.035 36.722 14.986 50.692 23.677v-71.093h-0.007zM975.599 406.985c0-9.244-14.134-29.929-67.106-48.852-51.14-18.27-119.661-28.33-192.921-28.33-33.93 0-66.972 2.175-98.273 6.452 0.512 3.241 0.767 6.523 0.767 9.777v83.101c31.222-3.922 64.009-5.919 97.505-5.919 78.703 0 153.051 11.078 209.342 31.188 19.698 7.042 36.729 14.993 50.692 23.683v-71.1h-0.007z" />
<glyph unicode="&#xe927;" glyph-name="shield" d="M512-64c-282.313 0-512 229.687-512 512s229.687 512 512 512c282.313 0 512-229.687 512-512s-229.687-512-512-512zM512 939.922c-271.24 0-491.922-220.672-491.922-491.922s220.672-491.922 491.922-491.922c271.25 0 491.922 220.662 491.922 491.922s-220.662 491.922-491.922 491.922zM504.792 134.546c-2.992 0-5.993 0.261-8.945 0.783-9.577 1.717-234.094 45.759-234.094 380.356v87.060c0 13.934 5.883 27.397 16.153 36.914 10.25 9.527 24.104 14.326 37.968 13.483 0.522-0.030 5.783-0.341 14.015-0.341 14.095 0 41.532 0.924 66.901 7.138 12.208 2.972 38.249 13.412 75.746 50.005 2.229 2.179 3.704 3.313 4.036 3.534 16.946 11.214 39.675 11.123 56.4 0.010 3.413-2.269 7.75-5.853 13.764-10.822 16.786-13.864 44.885-37.075 68.096-42.727 25.409-6.214 52.505-7.138 66.409-7.138 8.021 0 13.181 0.281 13.854 0.331 1.225 0.090 2.359 0.131 3.504 0.131 12.89 0 25.178-4.819 34.605-13.563 10.27-9.507 16.173-22.99 16.173-36.954v-87.060c0-334.316-226.023-378.629-235.63-380.346-2.921-0.522-5.943-0.793-8.955-0.793zM312.581 621.849c-4.969 0-9.678-1.847-13.312-5.22-3.875-3.584-6.104-8.654-6.104-13.884v-87.060c0-308.605 199.69-347.899 208.203-349.435 2.219-0.392 4.588-0.392 6.867 0 8.553 1.546 209.749 41.111 209.749 349.435v87.060c0 5.251-2.239 10.32-6.124 13.924-3.945 3.664-9.186 5.421-14.647 5.13-0.422-0.030-6.485-0.412-15.952-0.412-15.3 0-45.257 1.044-73.838 8.021-30.238 7.379-61.801 33.461-80.675 49.052-4.678 3.855-9.075 7.509-11.144 8.875-6.064 4.026-14.316 4.257-20.631 0.602l-0.472-0.452c-32.216-31.443-63.418-51.531-90.243-58.067-28.572-6.977-58.85-8.021-74.35-8.021-9.407 0-15.41 0.371-15.992 0.402l-1.335 0.050zM603.899 520.252l-119.236-118.382-59.141 58.729c-7.349 7.288-19.255 7.288-26.604 0-7.349-7.299-7.349-19.125 0-26.413l68.989-68.488c0.813-1.385 1.807-2.701 3.002-3.895 3.785-3.755 8.784-5.572 13.764-5.451 4.969-0.12 9.969 1.697 13.754 5.451 1.195 1.195 2.199 2.51 3.002 3.895l129.084 128.151c7.339 7.288 7.339 19.115 0 26.403-7.359 7.288-19.255 7.288-26.614 0z" />
</font>
</defs>
</svg>
